<svg height="512pt" viewBox="0 0 512.00016 512" width="512pt" xmlns="http://www.w3.org/2000/svg" xmlns:xlink="http://www.w3.org/1999/xlink"><linearGradient id="a" gradientUnits="userSpaceOnUse" x1=".000386" x2="511.99996" y1="256.00008" y2="256.00008"><stop offset="0" stop-color="#00f2fe"/><stop offset=".0208" stop-color="#03effe"/><stop offset=".2931" stop-color="#24d2fe"/><stop offset=".5538" stop-color="#3cbdfe"/><stop offset=".7956" stop-color="#4ab0fe"/><stop offset="1" stop-color="#4facfe"/></linearGradient><path d="m221.941406 472h-159.582031c-9.226563 0-14.792969-5.148438-17.289063-8.21875-4.308593-5.300781-5.976562-12.195312-4.578124-18.921875 20.828124-100.035156 106.402343-174.160156 207.132812-182.132813 2.769531.171876 5.5625.273438 8.375.273438 72.507812 0 131.5-58.992188 131.5-131.5 0-72.511719-58.992188-131.5-131.5-131.5s-131.5 58.988281-131.5 131.5c0 43.070312 20.816406 81.371094 52.914062 105.375-30.089843 10.402344-58.328124 26.078125-83.164062 46.507812-47.460938 39.039063-80.460938 93.488282-92.917969 153.324219-3.863281 18.5625.765625 37.632813 12.707031 52.3125 11.875 14.605469 29.488282 22.980469 48.320313 22.980469h159.582031c11.046875 0 20-8.953125 20-20s-8.953125-20-20-20zm-57.441406-340.5c0-50.453125 41.046875-91.5 91.5-91.5s91.5 41.046875 91.5 91.5c0 46.308594-34.582031 84.6875-79.277344 90.683594-.839844-.109375-1.691406-.183594-2.558594-.183594-6.03125 0-12.050781.210938-18.042968.613281-46.539063-4.246093-83.121094-43.484375-83.121094-91.113281zm327.5 164.5h-219c-11.046875 0-20 8.953125-20 20v70c0 11.046875 8.953125 20 20 20v46c0 33.085938 26.917969 60 60 60h99c33.085938 0 60-26.914062 60-60v-46c11.046875 0 20-8.953125 20-20v-70c0-11.046875-8.953125-20-20-20zm-199 40h179v30h-179zm159 116c0 11.027344-8.972656 20-20 20h-99c-11.027344 0-20-8.972656-20-20v-46h49v10c0 11.046875 8.953125 20 20 20s20-8.953125 20-20v-10h50zm0 0" fill="url(#a)"/></svg>