<?xml version="1.0" encoding="iso-8859-1"?>
<!-- Generator: Adobe Illustrator 19.0.0, SVG Export Plug-In . SVG Version: 6.00 Build 0)  -->
<svg version="1.1" id="Capa_1" xmlns="http://www.w3.org/2000/svg" xmlns:xlink="http://www.w3.org/1999/xlink" x="0px" y="0px"
	 viewBox="0 0 512 512" style="enable-background:new 0 0 512 512;" xml:space="preserve">
<linearGradient id="SVGID_1_" gradientUnits="userSpaceOnUse" x1="256" y1="495.939" x2="256" y2="20.061" gradientTransform="matrix(1 0 0 -1 0 514)">
	<stop  offset="0" style="stop-color:#2AF598"/>
	<stop  offset="1" style="stop-color:#009EFD"/>
</linearGradient>
<path style="fill:url(#SVGID_1_);" d="M233.429,228.642l22.184-22.348l22.185,22.348c6.015,6.059,1.755,16.419-6.751,16.419H240.18
	C231.674,245.061,227.414,234.701,233.429,228.642z M194.534,200.061c14.337,0,39.466-10.955,39.466-24.762
	c0-13.807-10.854-25.238-25.191-25.238c-14.337,0-26.728,11.431-26.728,25.238C182.082,189.106,180.197,200.061,194.534,200.061z
	 M319.27,200.061c14.265,0,12.678-10.955,12.678-24.762c0-13.807-12.617-25.238-26.882-25.238
	c-14.265,0-25.065,11.431-25.065,25.238C280,189.106,305.004,200.061,319.27,200.061z M512,113.939v240c0,33.084-26.916,60-60,60
	H276v40h104v40H132v-40h104v-40H60c-33.084,0-60-26.916-60-60v-240c0-33.084,26.916-60,60-60h101v0.465
	c27.018-22.92,61.599-36.113,95.496-36.341v-0.002l1.008,0.002c33.897,0.228,68.479,13.421,95.496,36.341v-0.465h99
	C485.084,53.939,512,80.855,512,113.939z M153,151.789v68.772c0,5.79,4.71,10.5,10.5,10.5c27.846,0,50.5,22.654,50.5,50.5v11.5h85
	v-11.5c0-27.846,22.654-50.5,50.5-50.5h1c5.79,0,10.5-4.71,10.5-10.5v-68.772c0-48.846-49.562-93.502-104-93.728
	C202.562,58.286,153,102.943,153,151.789z M472,113.939c0-11.028-8.972-20-20-20h-66.221C395.736,111.942,401,131.61,401,151.789
	v68.772c0,27.846-22.654,50.5-50.5,50.5h-1c-5.79,0-10.5,4.71-10.5,10.5v51.5H174v-51.5c0-5.79-4.71-10.5-10.5-10.5
	c-27.846,0-50.5-22.654-50.5-50.5v-68.772c0-20.178,5.264-39.846,15.221-57.85H60c-11.028,0-20,8.972-20,20v240
	c0,11.028,8.972,20,20,20h392c11.028,0,20-8.972,20-20V113.939z"/>
<g>
</g>
<g>
</g>
<g>
</g>
<g>
</g>
<g>
</g>
<g>
</g>
<g>
</g>
<g>
</g>
<g>
</g>
<g>
</g>
<g>
</g>
<g>
</g>
<g>
</g>
<g>
</g>
<g>
</g>
</svg>
